<svg width="36" height="36" viewBox="0 0 36 36" fill="none" xmlns="http://www.w3.org/2000/svg">
<path d="M18.3654 3.85091L7.64069 11.8537H4.34957C2.94197 11.8537 1.80005 13.0039 1.80005 14.4252V21.6533C1.80005 23.0742 2.94197 24.2251 4.34957 24.2251H7.64069L18.1376 32.0144C18.1376 32.0144 20.0672 33.6226 20.0672 31.9558V3.87827C20.0672 2.56715 18.3654 3.85091 18.3654 3.85091Z" fill="white"/>
<path d="M25.5083 10.3071C25.0194 9.81319 24.2238 9.81319 23.7349 10.3071C23.241 10.7945 23.241 11.5966 23.7349 12.0805C25.3521 13.6976 26.1531 15.8036 26.1531 17.92C26.1477 20.0386 25.347 22.1579 23.7349 23.77C23.241 24.2564 23.241 25.0599 23.7349 25.5538C23.9794 25.7979 24.2965 25.9178 24.6241 25.9178C24.9417 25.9178 25.2639 25.7979 25.5083 25.5538C27.6143 23.4424 28.6648 20.6762 28.6648 17.92C28.6648 15.1624 27.6143 12.4077 25.5083 10.3071Z" fill="white"/>
<path d="M29.4004 6.34901C28.9011 5.85473 28.1106 5.85473 27.6166 6.34901C27.1281 6.84329 27.1281 7.63349 27.6166 8.12741C30.331 10.8418 31.6832 14.3792 31.6882 17.9302C31.6832 21.5025 30.3361 25.0597 27.6166 27.7845C27.1281 28.273 27.1281 29.0686 27.6166 29.5625C27.8614 29.8045 28.1887 29.9265 28.5058 29.9265C28.8284 29.9265 29.1506 29.8045 29.4004 29.5625C32.5987 26.3492 34.2 22.1372 34.2 17.9302C34.2 13.7441 32.5879 9.54833 29.4004 6.34901Z" fill="white"/>
</svg>
