<svg width="36" height="36" viewBox="0 0 36 36" fill="none" xmlns="http://www.w3.org/2000/svg">
<path d="M32.9882 23.1097L30.0002 23.9123L26.871 22.1016L31.3905 20.8879C31.6184 20.8267 31.8128 20.6772 31.9308 20.4724C32.0488 20.2676 32.0808 20.0242 32.0197 19.7957C31.9586 19.5673 31.8095 19.3725 31.6051 19.2543C31.4008 19.136 31.1579 19.1039 30.93 19.1652L24.6916 20.8405L22.6242 19.6442V16.356L24.6916 15.1597L30.93 16.835C31.1579 16.8962 31.4008 16.8642 31.6051 16.7459C31.8095 16.6277 31.9586 16.4329 32.0197 16.2044C32.0808 15.976 32.0488 15.7326 31.9308 15.5277C31.8128 15.3229 31.6184 15.1735 31.3905 15.1123L26.8711 13.8986L30.0002 12.0884L32.9882 12.8909C33.2154 12.9501 33.4568 12.9168 33.6597 12.7984C33.8625 12.6799 34.0105 12.4859 34.0712 12.2586C34.132 12.0313 34.1007 11.7892 33.9841 11.5849C33.8675 11.3807 33.675 11.2309 33.4487 11.1683L30.9642 10.5004L31.6299 8.01051C31.661 7.89715 31.6693 7.77877 31.6545 7.66217C31.6397 7.54556 31.6021 7.43304 31.5437 7.33107C31.4854 7.22911 31.4075 7.13971 31.3146 7.06801C31.2216 6.99632 31.1155 6.94375 31.0022 6.91332C30.8889 6.88289 30.7707 6.87521 30.6545 6.89072C30.5382 6.90623 30.4262 6.94462 30.3248 7.00368C30.2234 7.06274 30.1346 7.14132 30.0636 7.23488C29.9926 7.32844 29.9408 7.43514 29.9111 7.54885L29.1103 10.5434L25.9811 12.3541L27.1921 7.82458C27.2231 7.71122 27.2314 7.59284 27.2166 7.47624C27.2018 7.35963 27.1642 7.24711 27.1058 7.14515C27.0475 7.04318 26.9696 6.95378 26.8767 6.88208C26.7837 6.81039 26.6776 6.75782 26.5643 6.72739C26.451 6.69696 26.3328 6.68928 26.2166 6.70479C26.1003 6.7203 25.9883 6.75869 25.8869 6.81775C25.7855 6.87682 25.6967 6.95539 25.6257 7.04895C25.5547 7.14251 25.5029 7.24921 25.4732 7.36293L23.8017 13.6151L21.7342 14.8115L18.8932 13.1675V10.7748L23.1908 6.4677C23.3577 6.30046 23.4514 6.07363 23.4514 5.83711C23.4514 5.60059 23.3577 5.37376 23.1908 5.20651C23.0239 5.03927 22.7976 4.94531 22.5616 4.94531C22.3256 4.94531 22.0993 5.03927 21.9324 5.20651L18.8932 8.25262V4.63134L21.0805 2.43907C21.2462 2.27158 21.3389 2.04514 21.3383 1.80931C21.3378 1.57349 21.2441 1.34747 21.0777 1.18073C20.9113 1.01398 20.6858 0.920087 20.4505 0.919587C20.2152 0.919087 19.9892 1.01202 19.8221 1.17806L18.0034 3.00087L16.1848 1.17806C16.1023 1.09465 16.0042 1.0284 15.8961 0.983092C15.788 0.937788 15.672 0.91433 15.5548 0.914065C15.4377 0.913799 15.3216 0.936732 15.2133 0.981546C15.105 1.02636 15.0066 1.09217 14.9237 1.1752C14.8408 1.25824 14.7752 1.35685 14.7304 1.46539C14.6857 1.57394 14.6628 1.69026 14.6631 1.8077C14.6633 1.92513 14.6867 2.04136 14.7319 2.14971C14.7771 2.25806 14.8432 2.35639 14.9264 2.43907L17.1137 4.63134V8.25262L14.0745 5.2066C13.9076 5.03936 13.6813 4.9454 13.4453 4.9454C13.2093 4.9454 12.983 5.03936 12.8161 5.2066C12.6492 5.37385 12.5555 5.60068 12.5555 5.8372C12.5555 6.07372 12.6492 6.30055 12.8161 6.46779L17.1137 10.7749V13.1676L14.2725 14.8116L12.205 13.6152L10.632 7.73157C10.5695 7.50476 10.4201 7.3119 10.2163 7.19503C10.0125 7.07816 9.77087 7.04675 9.54408 7.10765C9.31729 7.16855 9.12371 7.31682 9.00553 7.52015C8.88735 7.72348 8.85415 7.96538 8.91316 8.19314L10.0254 12.3541L6.89615 10.5434L6.09536 7.54885C6.06566 7.43514 6.01382 7.32844 5.94283 7.23488C5.87184 7.14132 5.78309 7.06274 5.68169 7.00368C5.58029 6.94462 5.46824 6.90623 5.35198 6.89072C5.23573 6.87521 5.11756 6.88289 5.00427 6.91332C4.89099 6.94375 4.78483 6.99632 4.69189 7.06801C4.59895 7.13971 4.52107 7.22911 4.46273 7.33107C4.40439 7.43304 4.36673 7.54556 4.35194 7.66217C4.33714 7.77877 4.34549 7.89715 4.37651 8.01051L5.04223 10.5004L2.55774 11.1676C2.44488 11.198 2.33909 11.2503 2.2464 11.3216C2.15371 11.3929 2.07595 11.4818 2.01755 11.5833C1.95914 11.6847 1.92125 11.7967 1.90602 11.9128C1.8908 12.0289 1.89854 12.1469 1.92881 12.26C1.95908 12.3731 2.01128 12.4791 2.08244 12.572C2.15359 12.6649 2.2423 12.7428 2.34351 12.8014C2.44472 12.8599 2.55644 12.8979 2.6723 12.9131C2.78815 12.9284 2.90587 12.9206 3.01873 12.8903L6.00674 12.0877L9.13587 13.8984L4.98422 15.0131C4.87135 15.0434 4.76555 15.0957 4.67284 15.167C4.58014 15.2383 4.50236 15.3272 4.44393 15.4286C4.32593 15.6334 4.29395 15.8768 4.35502 16.1053C4.41609 16.3337 4.56522 16.5285 4.76958 16.6468C4.97395 16.765 5.21682 16.7971 5.44476 16.7359L11.3153 15.1594L13.3827 16.3556V19.6437L11.3153 20.8399L5.44476 19.2634C5.21682 19.2022 4.97395 19.2343 4.76958 19.3525C4.56522 19.4708 4.41609 19.6656 4.35502 19.894C4.29395 20.1225 4.32593 20.3659 4.44393 20.5707C4.56193 20.7755 4.75627 20.925 4.98422 20.9862L9.13578 22.1009L6.00665 23.9111L3.01873 23.1085C2.79148 23.0494 2.55011 23.0827 2.34723 23.2011C2.14436 23.3196 1.99641 23.5136 1.93565 23.7409C1.87488 23.9682 1.90622 24.2103 2.02283 24.4145C2.13944 24.6188 2.33187 24.7685 2.55819 24.8312L5.04268 25.4984L4.37695 27.9883C4.34594 28.1017 4.33759 28.2201 4.35238 28.3367C4.36718 28.4533 4.40483 28.5658 4.46317 28.6678C4.52151 28.7697 4.59939 28.8591 4.69233 28.9308C4.78527 29.0025 4.89144 29.0551 5.00472 29.0855C5.118 29.1159 5.23617 29.1236 5.35243 29.1081C5.46868 29.0926 5.58073 29.0542 5.68213 28.9952C5.78353 28.9361 5.87228 28.8575 5.94328 28.764C6.01427 28.6704 6.0661 28.5637 6.0958 28.45L6.89659 25.4554L10.0258 23.6447L8.9136 27.8057C8.88234 27.9191 8.87378 28.0377 8.88844 28.1544C8.90309 28.2712 8.94066 28.3839 8.99898 28.486C9.0573 28.5882 9.13522 28.6777 9.22824 28.7496C9.32126 28.8214 9.42754 28.874 9.54097 28.9045C9.65439 28.935 9.77271 28.9426 9.8891 28.927C10.0055 28.9114 10.1176 28.8729 10.2191 28.8137C10.3206 28.7544 10.4093 28.6757 10.4803 28.5819C10.5512 28.4881 10.6029 28.3812 10.6325 28.2673L12.2055 22.3837L14.2729 21.1874L17.1137 22.8325V25.2252L12.5469 29.802C12.38 29.9693 12.2862 30.1961 12.2862 30.4326C12.2862 30.6691 12.38 30.896 12.5468 31.0632C12.7137 31.2304 12.94 31.3244 13.176 31.3244C13.412 31.3244 13.6383 31.2305 13.8052 31.0632L17.1137 27.7474V31.3687L14.9264 33.5609C14.8438 33.6437 14.7782 33.742 14.7335 33.8502C14.6888 33.9584 14.6658 34.0744 14.6658 34.1915C14.6658 34.3086 14.6888 34.4246 14.7335 34.5328C14.7782 34.641 14.8438 34.7393 14.9264 34.8221C15.009 34.9049 15.1071 34.9706 15.2151 35.0154C15.323 35.0602 15.4388 35.0832 15.5556 35.0832C15.6724 35.0832 15.7882 35.0602 15.8961 35.0154C16.0041 34.9705 16.1021 34.9048 16.1848 34.822L18.0034 32.9991L19.8221 34.8219C19.9046 34.9053 20.0027 34.9716 20.1108 35.0169C20.2189 35.0622 20.3349 35.0857 20.4521 35.0859C20.5692 35.0862 20.6853 35.0633 20.7936 35.0185C20.9019 34.9736 21.0003 34.9078 21.0832 34.8248C21.1661 34.7418 21.2317 34.6431 21.2765 34.5346C21.3212 34.4261 21.3441 34.3097 21.3438 34.1923C21.3436 34.0749 21.3202 33.9586 21.275 33.8503C21.2298 33.7419 21.1637 33.6436 21.0805 33.5609L18.8932 31.3687V27.7474L22.2017 31.0632C22.3686 31.2305 22.5949 31.3244 22.8309 31.3244C23.0669 31.3244 23.2932 31.2304 23.4601 31.0632C23.6269 30.896 23.7207 30.6691 23.7207 30.4326C23.7206 30.1961 23.6269 29.9693 23.46 29.802L18.8932 25.2252V22.8325L21.7344 21.1885L23.8019 22.3849L25.4734 28.6371C25.5031 28.7508 25.5549 28.8575 25.6259 28.951C25.6969 29.0446 25.7857 29.1232 25.8871 29.1822C25.9885 29.2413 26.1005 29.2797 26.2168 29.2952C26.333 29.3107 26.4512 29.303 26.5645 29.2726C26.6778 29.2422 26.7839 29.1896 26.8769 29.1179C26.9698 29.0462 27.0477 28.9568 27.106 28.8549C27.1644 28.7529 27.202 28.6404 27.2168 28.5238C27.2316 28.4072 27.2233 28.2888 27.1922 28.1754L25.9813 23.6459L29.1105 25.4566L29.9113 28.4511C29.941 28.5649 29.9928 28.6716 30.0638 28.7651C30.1348 28.8587 30.2235 28.9373 30.3249 28.9963C30.4263 29.0554 30.5384 29.0938 30.6546 29.1093C30.7709 29.1248 30.8891 29.1171 31.0024 29.0867C31.1156 29.0563 31.2218 29.0037 31.3147 28.932C31.4077 28.8603 31.4856 28.7709 31.5439 28.6689C31.6022 28.567 31.6399 28.4544 31.6547 28.3378C31.6695 28.2212 31.6611 28.1028 31.6301 27.9895L30.9642 25.4996L33.4487 24.8324C33.675 24.7697 33.8675 24.6199 33.9841 24.4157C34.1007 24.2115 34.132 23.9693 34.0712 23.742C34.0105 23.5147 33.8625 23.3207 33.6597 23.2023C33.4568 23.0838 33.2154 23.0505 32.9882 23.1097Z" fill="white"/>
</svg>
